<svg xmlns="http://www.w3.org/2000/svg" width="1990.3370361328125" height="208.3350067138672" style=""><rect id="backgroundrect" width="100%" height="100%" x="0" y="0" fill="none" stroke="none"/>
  
<g class="currentLayer" style=""><title>Layer 1</title><g id="bg" class="">
    <path id="Path_1" data-name="Path 1" d="M-4.34493745679538,101.56687585916175 s108.32185986852055,1.4080848445892338 225.12105630904412,-22.47598986625671 s180.64764444668995,10.349218347549439 258.3742557353709,27.60749440193176 s146.8171571035338,10.680713540554047 226.7022792546151,0 s198.63456095861662,-36.980700586795805 345.45171806215046,-30.68639712333679 s246.13393207678533,39.17287932443619 345.45171806215046,30.68639712333679 s183.65843852080144,-32.59736941242218 265.56558489895565,-30.68639712333679 s136.02156975519176,26.022885801315308 218.20371142822785,0 s112.27188419610742,-15.342172260761261 112.27188419610742,-15.342172260761261 V207.5170500072445 H-4.34493745679538 z" fill="#fff"/>
    <path id="Path_2" data-name="Path 2" d="M-6.642967990863693,60.3937360667195 s172.72535352501845,63.559841479778285 282.8387268587255,43.8343380446434 s220.2257356553007,-37.25472292900085 295.792825069468,-26.301013347148896 s138.18109162970558,35.06767569589615 183.52094087336044,37.25472292900085 s84.20416590010895,-30.68639712333679 168.40732078810436,-54.79317913103104 s179.20290813644638,-46.026516782283785 256.9295194251274,-13.14999352312088 s229.5472673421066,81.84133953857422 305.11435675627376,62.115836103439335 s178.51744192346868,-88.41684945058822 269.1991624350055,-88.41684945058822 s246.13393207678533,39.45100687026977 246.13393207678533,39.45100687026977 V213.8144323734249 H-6.642967990863693 z" fill="#fff" opacity="0.2"/>
    <path id="Path_3" data-name="Path 3" d="M-10.958978703550725,137.1035710696186 s58.29495846651075,-61.37279424667358 136.02156975519176,-72.32650382852555 s120.9079496699356,50.40984795665741 192.15700634718868,72.32650382852555 S509.377614758132,36.284901457210886 632.4440752904678,49.43489498033187 s97.15826411085126,65.75202021741866 213.74818104387276,59.17651030540466 s246.13393207678533,-120.54519934844971 360.5653381474066,-100.81969591331482 s246.13393207678533,142.46185522031786 315.2244778916382,129.31391429901123 s226.7022792546151,-111.77751069879531 323.86054336546636,-129.31391429901123 s148.97566796593412,0 148.97566796593412,0 V209.4311011990513 H-10.958978703550725 z" fill="#fff" opacity="0.1"/>
  </g></g></svg>