<svg xmlns="http://www.w3.org/2000/svg" width="1990.3370361328125" height="208.3350067138672" style=""><rect id="backgroundrect" width="100%" height="100%" x="0" y="0" fill="none" stroke="none"/>
  
<g class="currentLayer" style=""><title>Layer 1</title><g id="bg" class="selected">
    <path id="Path_1" data-name="Path 1" d="M-4.34493745679538,102.86832674570152 s108.32185986852055,1.4261272678006132 225.12105630904412,-22.763984814018524 s180.64764444668995,10.48182752806223 258.3742557353709,27.96124162087207 s146.8171571035338,10.81757031778497 226.7022792546151,0 s198.63456095861662,-37.45455090427076 345.45171806215046,-31.079595704984197 s246.13393207678533,39.67481901215859 345.45171806215046,31.079595704984197 s183.65843852080144,-33.01505413985646 265.56558489895565,-31.079595704984197 s136.02156975519176,26.356328718915698 218.20371142822785,0 s112.27188419610742,-15.53875840113073 112.27188419610742,-15.53875840113073 V210.1760880368067 H-4.34493745679538 z" fill="#fff"/>
    <path id="Path_2" data-name="Path 2" d="M-6.642967990863693,61.16761703023148 s172.72535352501845,64.37426226104938 282.8387268587255,44.39600709550435 s220.2257356553007,-37.73208441775673 295.792825069468,-26.63802003784716 s138.18109162970558,35.51701356667576 183.52094087336044,37.73208441775673 s84.20416590010895,-31.079595704984197 168.40732078810436,-55.49526873222079 s179.20290813644638,-46.61627520339219 256.9295194251274,-13.318490293242895 s229.5472673421066,82.89000936114581 305.11435675627376,62.9117541956008 s178.51744192346868,-89.54977423344795 269.1991624350055,-89.54977423344795 s246.13393207678533,39.95651033109005 246.13393207678533,39.95651033109005 V216.55416159017733 H-6.642967990863693 z" fill="#fff" opacity="0.2"/>
    <path id="Path_3" data-name="Path 3" d="M-10.958978703550725,138.86036958452368 s58.29495846651075,-62.15919140996839 136.02156975519176,-73.25325578987798 s120.9079496699356,51.055771967806486 192.15700634718868,73.25325578987798 S509.377614758132,36.74986510027206 632.4440752904678,50.06835539351506 s97.15826411085126,66.5945303689372 213.74818104387276,59.93476549663508 s246.13393207678533,-122.08979910115801 360.5653381474066,-102.11154393561297 s246.13393207678533,144.2872829232295 315.2244778916382,130.97087153270934 s226.7022792546151,-113.20976612096803 323.86054336546636,-130.97087153270934 s148.97566796593412,0 148.97566796593412,0 V212.11466482576307 H-10.958978703550725 z" fill="#fff" opacity="0.1"/>
  </g></g></svg>